<svg xmlns="http://www.w3.org/2000/svg" width="512" height="512" viewBox="0 0 512 512" preserveAspectRatio="xMidYMid meet">
  <!-- Add padding by using a larger viewBox and centering the content -->
  <g transform="translate(256, 256)">
    <!-- Scale to 85% and center (better size with some padding) -->
    <g transform="scale(0.85) translate(-187.5, -187.5)">
      <g fill="#ff00ff" fill-opacity="1">
        <g transform="translate(30.403611, 300.703502)">
          <g>
            <path d="M 187.578125 -162.296875 C 187.578125 -153.867188 184.65625 -146.664062 178.8125 -140.6875 C 172.96875 -134.707031 165.695312 -131.71875 157 -131.71875 C 148.570312 -131.71875 141.363281 -134.707031 135.375 -140.6875 C 129.394531 -146.664062 126.40625 -153.867188 126.40625 -162.296875 C 126.40625 -170.992188 129.394531 -178.332031 135.375 -184.3125 C 141.363281 -190.289062 148.570312 -193.28125 157 -193.28125 C 165.695312 -193.28125 172.96875 -190.289062 178.8125 -184.3125 C 184.65625 -178.332031 187.578125 -170.992188 187.578125 -162.296875 Z M 313.984375 -163.515625 C 313.984375 -143.128906 310.722656 -123.21875 304.203125 -103.78125 C 297.679688 -84.34375 287.894531 -66.804688 274.84375 -51.171875 C 261.789062 -35.546875 245.476562 -23.109375 225.90625 -13.859375 C 206.332031 -4.617188 183.5 0 157.40625 0 C 131.03125 0 107.988281 -4.617188 88.28125 -13.859375 C 68.570312 -23.109375 52.191406 -35.546875 39.140625 -51.171875 C 26.097656 -66.804688 16.3125 -84.34375 9.78125 -103.78125 C 3.257812 -123.21875 0 -143.128906 0 -163.515625 C 0 -183.910156 3.257812 -203.757812 9.78125 -223.0625 C 16.3125 -242.363281 26.097656 -259.757812 39.140625 -275.25 C 52.191406 -290.75 68.570312 -303.117188 88.28125 -312.359375 C 107.988281 -321.597656 131.03125 -326.21875 157.40625 -326.21875 C 183.5 -326.21875 206.332031 -321.597656 225.90625 -312.359375 C 245.476562 -303.117188 261.789062 -290.75 274.84375 -275.25 C 287.894531 -259.757812 297.679688 -242.363281 304.203125 -223.0625 C 310.722656 -203.757812 313.984375 -183.910156 313.984375 -163.515625 Z M 252.828125 -162.296875 C 252.828125 -175.617188 250.785156 -188.597656 246.703125 -201.234375 C 242.628906 -213.878906 236.648438 -225.296875 228.765625 -235.484375 C 220.878906 -245.679688 210.957031 -253.769531 199 -259.75 C 187.039062 -265.738281 173.175781 -268.734375 157.40625 -268.734375 C 141.363281 -268.734375 127.359375 -265.738281 115.390625 -259.75 C 103.429688 -253.769531 93.441406 -245.679688 85.421875 -235.484375 C 77.410156 -225.296875 71.429688 -213.878906 67.484375 -201.234375 C 63.546875 -188.597656 61.578125 -175.617188 61.578125 -162.296875 C 61.578125 -149.242188 63.546875 -136.460938 67.484375 -123.953125 C 71.429688 -111.453125 77.410156 -100.171875 85.421875 -90.109375 C 93.441406 -80.054688 103.429688 -72.039062 115.390625 -66.0625 C 127.359375 -60.082031 141.363281 -57.09375 157.40625 -57.09375 C 173.175781 -57.09375 187.039062 -60.082031 199 -66.0625 C 210.957031 -72.039062 220.878906 -80.054688 228.765625 -90.109375 C 236.648438 -100.171875 242.628906 -111.453125 246.703125 -123.953125 C 250.785156 -136.460938 252.828125 -149.242188 252.828125 -162.296875 Z M 252.828125 -162.296875 "/>
          </g>
        </g>
      </g>
      <g fill="#00ffff" fill-opacity="1">
        <g transform="translate(15.11202, 300.703502)">
          <g>
            <path d="M 187.578125 -162.296875 C 187.578125 -153.867188 184.65625 -146.664062 178.8125 -140.6875 C 172.96875 -134.707031 165.695312 -131.71875 157 -131.71875 C 148.570312 -131.71875 141.363281 -134.707031 135.375 -140.6875 C 129.394531 -146.664062 126.40625 -153.867188 126.40625 -162.296875 C 126.40625 -170.992188 129.394531 -178.332031 135.375 -184.3125 C 141.363281 -190.289062 148.570312 -193.28125 157 -193.28125 C 165.695312 -193.28125 172.96875 -190.289062 178.8125 -184.3125 C 184.65625 -178.332031 187.578125 -170.992188 187.578125 -162.296875 Z M 313.984375 -163.515625 C 313.984375 -143.128906 310.722656 -123.21875 304.203125 -103.78125 C 297.679688 -84.34375 287.894531 -66.804688 274.84375 -51.171875 C 261.789062 -35.546875 245.476562 -23.109375 225.90625 -13.859375 C 206.332031 -4.617188 183.5 0 157.40625 0 C 131.03125 0 107.988281 -4.617188 88.28125 -13.859375 C 68.570312 -23.109375 52.191406 -35.546875 39.140625 -51.171875 C 26.097656 -66.804688 16.3125 -84.34375 9.78125 -103.78125 C 3.257812 -123.21875 0 -143.128906 0 -163.515625 C 0 -183.910156 3.257812 -203.757812 9.78125 -223.0625 C 16.3125 -242.363281 26.097656 -259.757812 39.140625 -275.25 C 52.191406 -290.75 68.570312 -303.117188 88.28125 -312.359375 C 107.988281 -321.597656 131.03125 -326.21875 157.40625 -326.21875 C 183.5 -326.21875 206.332031 -321.597656 225.90625 -312.359375 C 245.476562 -303.117188 261.789062 -290.75 274.84375 -275.25 C 287.894531 -259.757812 297.679688 -242.363281 304.203125 -223.0625 C 310.722656 -203.757812 313.984375 -183.910156 313.984375 -163.515625 Z M 252.828125 -162.296875 C 252.828125 -175.617188 250.785156 -188.597656 246.703125 -201.234375 C 242.628906 -213.878906 236.648438 -225.296875 228.765625 -235.484375 C 220.878906 -245.679688 210.957031 -253.769531 199 -259.75 C 187.039062 -265.738281 173.175781 -268.734375 157.40625 -268.734375 C 141.363281 -268.734375 127.359375 -265.738281 115.390625 -259.75 C 103.429688 -253.769531 93.441406 -245.679688 85.421875 -235.484375 C 77.410156 -225.296875 71.429688 -213.878906 67.484375 -201.234375 C 63.546875 -188.597656 61.578125 -175.617188 61.578125 -162.296875 C 61.578125 -149.242188 63.546875 -136.460938 67.484375 -123.953125 C 71.429688 -111.453125 77.410156 -100.171875 85.421875 -90.109375 C 93.441406 -80.054688 103.429688 -72.039062 115.390625 -66.0625 C 127.359375 -60.082031 141.363281 -57.09375 157.40625 -57.09375 C 173.175781 -57.09375 187.039062 -60.082031 199 -66.0625 C 210.957031 -72.039062 220.878906 -80.054688 228.765625 -90.109375 C 236.648438 -100.171875 242.628906 -111.453125 246.703125 -123.953125 C 250.785156 -136.460938 252.828125 -149.242188 252.828125 -162.296875 Z M 252.828125 -162.296875 "/>
          </g>
        </g>
      </g>
      <g fill="#ffffff" fill-opacity="1">
        <g transform="translate(22.757816, 300.703502)">
          <g>
            <path d="M 187.578125 -162.296875 C 187.578125 -153.867188 184.65625 -146.664062 178.8125 -140.6875 C 172.96875 -134.707031 165.695312 -131.71875 157 -131.71875 C 148.570312 -131.71875 141.363281 -134.707031 135.375 -140.6875 C 129.394531 -146.664062 126.40625 -153.867188 126.40625 -162.296875 C 126.40625 -170.992188 129.394531 -178.332031 135.375 -184.3125 C 141.363281 -190.289062 148.570312 -193.28125 157 -193.28125 C 165.695312 -193.28125 172.96875 -190.289062 178.8125 -184.3125 C 184.65625 -178.332031 187.578125 -170.992188 187.578125 -162.296875 Z M 313.984375 -163.515625 C 313.984375 -143.128906 310.722656 -123.21875 304.203125 -103.78125 C 297.679688 -84.34375 287.894531 -66.804688 274.84375 -51.171875 C 261.789062 -35.546875 245.476562 -23.109375 225.90625 -13.859375 C 206.332031 -4.617188 183.5 0 157.40625 0 C 131.03125 0 107.988281 -4.617188 88.28125 -13.859375 C 68.570312 -23.109375 52.191406 -35.546875 39.140625 -51.171875 C 26.097656 -66.804688 16.3125 -84.34375 9.78125 -103.78125 C 3.257812 -123.21875 0 -143.128906 0 -163.515625 C 0 -183.910156 3.257812 -203.757812 9.78125 -223.0625 C 16.3125 -242.363281 26.097656 -259.757812 39.140625 -275.25 C 52.191406 -290.75 68.570312 -303.117188 88.28125 -312.359375 C 107.988281 -321.597656 131.03125 -326.21875 157.40625 -326.21875 C 183.5 -326.21875 206.332031 -321.597656 225.90625 -312.359375 C 245.476562 -303.117188 261.789062 -290.75 274.84375 -275.25 C 287.894531 -259.757812 297.679688 -242.363281 304.203125 -223.0625 C 310.722656 -203.757812 313.984375 -183.910156 313.984375 -163.515625 Z M 252.828125 -162.296875 C 252.828125 -175.617188 250.785156 -188.597656 246.703125 -201.234375 C 242.628906 -213.878906 236.648438 -225.296875 228.765625 -235.484375 C 220.878906 -245.679688 210.957031 -253.769531 199 -259.75 C 187.039062 -265.738281 173.175781 -268.734375 157.40625 -268.734375 C 141.363281 -268.734375 127.359375 -265.738281 115.390625 -259.75 C 103.429688 -253.769531 93.441406 -245.679688 85.421875 -235.484375 C 77.410156 -225.296875 71.429688 -213.878906 67.484375 -201.234375 C 63.546875 -188.597656 61.578125 -175.617188 61.578125 -162.296875 C 61.578125 -149.242188 63.546875 -136.460938 67.484375 -123.953125 C 71.429688 -111.453125 77.410156 -100.171875 85.421875 -90.109375 C 93.441406 -80.054688 103.429688 -72.039062 115.390625 -66.0625 C 127.359375 -60.082031 141.363281 -57.09375 157.40625 -57.09375 C 173.175781 -57.09375 187.039062 -60.082031 199 -66.0625 C 210.957031 -72.039062 220.878906 -80.054688 228.765625 -90.109375 C 236.648438 -100.171875 242.628906 -111.453125 246.703125 -123.953125 C 250.785156 -136.460938 252.828125 -149.242188 252.828125 -162.296875 Z M 252.828125 -162.296875 "/>
          </g>
        </g>
      </g>
    </g>
  </g>
</svg>
