<svg xmlns="http://www.w3.org/2000/svg" xmlns:xlink="http://www.w3.org/1999/xlink" width="500" zoomAndPan="magnify" viewBox="0 0 375 374.999991" height="500" preserveAspectRatio="xMidYMid meet" version="1.0"><defs><g/><clipPath id="ff73e90b34"><path d="M 16 0 L 331 0 L 331 301 L 16 301 Z M 16 0 " clip-rule="nonzero"/></clipPath><clipPath id="3c34177d08"><path d="M 1 0 L 316 0 L 316 301 L 1 301 Z M 1 0 " clip-rule="nonzero"/></clipPath><clipPath id="bd4574ac6a"><path d="M 8 0 L 323 0 L 323 301 L 8 301 Z M 8 0 " clip-rule="nonzero"/></clipPath><clipPath id="186cf0d743"><rect x="0" width="340" y="0" height="342"/></clipPath></defs><g transform="matrix(1, 0, 0, 1, 14, 0)"><g clip-path="url(#186cf0d743)"><g clip-path="url(#ff73e90b34)"><g fill="#ff00ff" fill-opacity="1"><g transform="translate(16.400978, 300.90994)"><g><path d="M 187.578125 -162.296875 C 187.578125 -153.867188 184.648438 -146.660156 178.796875 -140.671875 C 172.953125 -134.691406 165.679688 -131.703125 156.984375 -131.703125 C 148.554688 -131.703125 141.351562 -134.691406 135.375 -140.671875 C 129.394531 -146.660156 126.40625 -153.867188 126.40625 -162.296875 C 126.40625 -170.992188 129.394531 -178.332031 135.375 -184.3125 C 141.351562 -190.289062 148.554688 -193.28125 156.984375 -193.28125 C 165.679688 -193.28125 172.953125 -190.289062 178.796875 -184.3125 C 184.648438 -178.332031 187.578125 -170.992188 187.578125 -162.296875 Z M 313.984375 -163.515625 C 313.984375 -143.128906 310.71875 -123.21875 304.1875 -103.78125 C 297.664062 -84.34375 287.878906 -66.804688 274.828125 -51.171875 C 261.785156 -35.546875 245.476562 -23.109375 225.90625 -13.859375 C 206.332031 -4.617188 183.492188 0 157.390625 0 C 131.023438 0 107.988281 -4.617188 88.28125 -13.859375 C 68.570312 -23.109375 52.191406 -35.546875 39.140625 -51.171875 C 26.097656 -66.804688 16.3125 -84.34375 9.78125 -103.78125 C 3.257812 -123.21875 0 -143.128906 0 -163.515625 C 0 -183.898438 3.257812 -203.742188 9.78125 -223.046875 C 16.3125 -242.347656 26.097656 -259.742188 39.140625 -275.234375 C 52.191406 -290.734375 68.570312 -303.101562 88.28125 -312.34375 C 107.988281 -321.59375 131.023438 -326.21875 157.390625 -326.21875 C 183.492188 -326.21875 206.332031 -321.59375 225.90625 -312.34375 C 245.476562 -303.101562 261.785156 -290.734375 274.828125 -275.234375 C 287.878906 -259.742188 297.664062 -242.347656 304.1875 -223.046875 C 310.71875 -203.742188 313.984375 -183.898438 313.984375 -163.515625 Z M 252.8125 -162.296875 C 252.8125 -175.609375 250.769531 -188.582031 246.6875 -201.21875 C 242.613281 -213.863281 236.632812 -225.285156 228.75 -235.484375 C 220.875 -245.679688 210.953125 -253.769531 198.984375 -259.75 C 187.023438 -265.726562 173.160156 -268.71875 157.390625 -268.71875 C 141.359375 -268.71875 127.359375 -265.726562 115.390625 -259.75 C 103.429688 -253.769531 93.441406 -245.679688 85.421875 -235.484375 C 77.398438 -225.285156 71.421875 -213.863281 67.484375 -201.21875 C 63.546875 -188.582031 61.578125 -175.609375 61.578125 -162.296875 C 61.578125 -149.242188 63.546875 -136.460938 67.484375 -123.953125 C 71.421875 -111.453125 77.398438 -100.171875 85.421875 -90.109375 C 93.441406 -80.054688 103.429688 -72.039062 115.390625 -66.0625 C 127.359375 -60.082031 141.359375 -57.09375 157.390625 -57.09375 C 173.160156 -57.09375 187.023438 -60.082031 198.984375 -66.0625 C 210.953125 -72.039062 220.875 -80.054688 228.75 -90.109375 C 236.632812 -100.171875 242.613281 -111.453125 246.6875 -123.953125 C 250.769531 -136.460938 252.8125 -149.242188 252.8125 -162.296875 Z M 252.8125 -162.296875 "/></g></g></g></g><g clip-path="url(#3c34177d08)"><g fill="#00ffff" fill-opacity="1"><g transform="translate(1.109398, 300.90994)"><g><path d="M 187.578125 -162.296875 C 187.578125 -153.867188 184.648438 -146.660156 178.796875 -140.671875 C 172.953125 -134.691406 165.679688 -131.703125 156.984375 -131.703125 C 148.554688 -131.703125 141.351562 -134.691406 135.375 -140.671875 C 129.394531 -146.660156 126.40625 -153.867188 126.40625 -162.296875 C 126.40625 -170.992188 129.394531 -178.332031 135.375 -184.3125 C 141.351562 -190.289062 148.554688 -193.28125 156.984375 -193.28125 C 165.679688 -193.28125 172.953125 -190.289062 178.796875 -184.3125 C 184.648438 -178.332031 187.578125 -170.992188 187.578125 -162.296875 Z M 313.984375 -163.515625 C 313.984375 -143.128906 310.71875 -123.21875 304.1875 -103.78125 C 297.664062 -84.34375 287.878906 -66.804688 274.828125 -51.171875 C 261.785156 -35.546875 245.476562 -23.109375 225.90625 -13.859375 C 206.332031 -4.617188 183.492188 0 157.390625 0 C 131.023438 0 107.988281 -4.617188 88.28125 -13.859375 C 68.570312 -23.109375 52.191406 -35.546875 39.140625 -51.171875 C 26.097656 -66.804688 16.3125 -84.34375 9.78125 -103.78125 C 3.257812 -123.21875 0 -143.128906 0 -163.515625 C 0 -183.898438 3.257812 -203.742188 9.78125 -223.046875 C 16.3125 -242.347656 26.097656 -259.742188 39.140625 -275.234375 C 52.191406 -290.734375 68.570312 -303.101562 88.28125 -312.34375 C 107.988281 -321.59375 131.023438 -326.21875 157.390625 -326.21875 C 183.492188 -326.21875 206.332031 -321.59375 225.90625 -312.34375 C 245.476562 -303.101562 261.785156 -290.734375 274.828125 -275.234375 C 287.878906 -259.742188 297.664062 -242.347656 304.1875 -223.046875 C 310.71875 -203.742188 313.984375 -183.898438 313.984375 -163.515625 Z M 252.8125 -162.296875 C 252.8125 -175.609375 250.769531 -188.582031 246.6875 -201.21875 C 242.613281 -213.863281 236.632812 -225.285156 228.75 -235.484375 C 220.875 -245.679688 210.953125 -253.769531 198.984375 -259.75 C 187.023438 -265.726562 173.160156 -268.71875 157.390625 -268.71875 C 141.359375 -268.71875 127.359375 -265.726562 115.390625 -259.75 C 103.429688 -253.769531 93.441406 -245.679688 85.421875 -235.484375 C 77.398438 -225.285156 71.421875 -213.863281 67.484375 -201.21875 C 63.546875 -188.582031 61.578125 -175.609375 61.578125 -162.296875 C 61.578125 -149.242188 63.546875 -136.460938 67.484375 -123.953125 C 71.421875 -111.453125 77.398438 -100.171875 85.421875 -90.109375 C 93.441406 -80.054688 103.429688 -72.039062 115.390625 -66.0625 C 127.359375 -60.082031 141.359375 -57.09375 157.390625 -57.09375 C 173.160156 -57.09375 187.023438 -60.082031 198.984375 -66.0625 C 210.953125 -72.039062 220.875 -80.054688 228.75 -90.109375 C 236.632812 -100.171875 242.613281 -111.453125 246.6875 -123.953125 C 250.769531 -136.460938 252.8125 -149.242188 252.8125 -162.296875 Z M 252.8125 -162.296875 "/></g></g></g></g><g clip-path="url(#bd4574ac6a)"><g fill="#000000" fill-opacity="1"><g transform="translate(8.755188, 300.90994)"><g><path d="M 187.578125 -162.296875 C 187.578125 -153.867188 184.648438 -146.660156 178.796875 -140.671875 C 172.953125 -134.691406 165.679688 -131.703125 156.984375 -131.703125 C 148.554688 -131.703125 141.351562 -134.691406 135.375 -140.671875 C 129.394531 -146.660156 126.40625 -153.867188 126.40625 -162.296875 C 126.40625 -170.992188 129.394531 -178.332031 135.375 -184.3125 C 141.351562 -190.289062 148.554688 -193.28125 156.984375 -193.28125 C 165.679688 -193.28125 172.953125 -190.289062 178.796875 -184.3125 C 184.648438 -178.332031 187.578125 -170.992188 187.578125 -162.296875 Z M 313.984375 -163.515625 C 313.984375 -143.128906 310.71875 -123.21875 304.1875 -103.78125 C 297.664062 -84.34375 287.878906 -66.804688 274.828125 -51.171875 C 261.785156 -35.546875 245.476562 -23.109375 225.90625 -13.859375 C 206.332031 -4.617188 183.492188 0 157.390625 0 C 131.023438 0 107.988281 -4.617188 88.28125 -13.859375 C 68.570312 -23.109375 52.191406 -35.546875 39.140625 -51.171875 C 26.097656 -66.804688 16.3125 -84.34375 9.78125 -103.78125 C 3.257812 -123.21875 0 -143.128906 0 -163.515625 C 0 -183.898438 3.257812 -203.742188 9.78125 -223.046875 C 16.3125 -242.347656 26.097656 -259.742188 39.140625 -275.234375 C 52.191406 -290.734375 68.570312 -303.101562 88.28125 -312.34375 C 107.988281 -321.59375 131.023438 -326.21875 157.390625 -326.21875 C 183.492188 -326.21875 206.332031 -321.59375 225.90625 -312.34375 C 245.476562 -303.101562 261.785156 -290.734375 274.828125 -275.234375 C 287.878906 -259.742188 297.664062 -242.347656 304.1875 -223.046875 C 310.71875 -203.742188 313.984375 -183.898438 313.984375 -163.515625 Z M 252.8125 -162.296875 C 252.8125 -175.609375 250.769531 -188.582031 246.6875 -201.21875 C 242.613281 -213.863281 236.632812 -225.285156 228.75 -235.484375 C 220.875 -245.679688 210.953125 -253.769531 198.984375 -259.75 C 187.023438 -265.726562 173.160156 -268.71875 157.390625 -268.71875 C 141.359375 -268.71875 127.359375 -265.726562 115.390625 -259.75 C 103.429688 -253.769531 93.441406 -245.679688 85.421875 -235.484375 C 77.398438 -225.285156 71.421875 -213.863281 67.484375 -201.21875 C 63.546875 -188.582031 61.578125 -175.609375 61.578125 -162.296875 C 61.578125 -149.242188 63.546875 -136.460938 67.484375 -123.953125 C 71.421875 -111.453125 77.398438 -100.171875 85.421875 -90.109375 C 93.441406 -80.054688 103.429688 -72.039062 115.390625 -66.0625 C 127.359375 -60.082031 141.359375 -57.09375 157.390625 -57.09375 C 173.160156 -57.09375 187.023438 -60.082031 198.984375 -66.0625 C 210.953125 -72.039062 220.875 -80.054688 228.75 -90.109375 C 236.632812 -100.171875 242.613281 -111.453125 246.6875 -123.953125 C 250.769531 -136.460938 252.8125 -149.242188 252.8125 -162.296875 Z M 252.8125 -162.296875 "/></g></g></g></g></g></g></svg>